<?xml version="1.0" encoding="utf-8"?>
<!-- Generator: Adobe Illustrator 26.0.0, SVG Export Plug-In . SVG Version: 6.00 Build 0)  -->
<svg version="1.1" id="Capa_1" xmlns="http://www.w3.org/2000/svg" xmlns:xlink="http://www.w3.org/1999/xlink" x="0px" y="0px"
	 viewBox="0 0 508.1 200" style="enable-background:new 0 0 508.1 200;" xml:space="preserve">
<style type="text/css">
	.st0{fill:none;}
	.st1{fill:#FFFFFF;}
	.st2{font-family:'Calibri-Bold';}
	.st3{font-size:72px;}
</style>
<path class="st0" d="M71.7,124.7c-2-7.4-8.2-12.1-13.8-10.7c-5.6,1.5-8.6,8.7-6.6,16c2,7.4,8.2,12.2,13.8,10.7
	C70.8,139.2,73.7,132.1,71.7,124.7z"/>
<path class="st0" d="M88.1,120.3c6-1.7,9-10.4,6.7-19.8c-2.3-9.4-9-15.1-15-13.6c-6,1.7-9,10.4-6.7,19.8
	C75.4,115.9,82.1,122,88.1,120.3z"/>
<path class="st0" d="M112.3,120.3c5.8,1.7,12.7-4.4,15-13.6c2.3-9.2-0.7-18.1-6.7-19.8c-5.8-1.7-12.7,4.4-15,13.6
	C103.3,109.6,106.3,118.6,112.3,120.3z"/>
<path class="st0" d="M142.5,114c-5.6-1.3-11.8,3.3-13.8,10.7c-2,7.4,0.9,14.5,6.5,16c5.6,1.3,11.8-3.3,13.8-10.7
	C151,122.7,148,115.5,142.5,114z"/>
<path class="st0" d="M100.2,127.4c-15.3,0-36.9,26.1-36.9,42.6c-0.2,7.4,5,11.9,13.7,11.9c9.4,0,15.7-5.3,23.2-5.3
	c7.6,0,13.9,5.3,23.2,5.3c8.5,0,13.9-4.4,13.9-11.9C137.1,153.5,115.5,127.4,100.2,127.4z"/>
<path class="st0" d="M135.2,140.7c5.6,1.3,11.8-3.3,13.8-10.7c2-7.4-1.1-14.5-6.5-16c-5.6-1.3-11.8,3.3-13.8,10.7
	C126.7,132.1,129.6,139.2,135.2,140.7z"/>
<path class="st0" d="M112.3,120.3c5.8,1.7,12.7-4.4,15-13.6c2.3-9.2-0.7-18.1-6.7-19.8c-5.8-1.7-12.7,4.4-15,13.6
	C103.3,109.6,106.3,118.6,112.3,120.3z"/>
<path class="st0" d="M71.7,124.7c-2-7.4-8.2-12.1-13.8-10.7c-5.6,1.5-8.6,8.7-6.6,16c2,7.4,8.2,12.2,13.8,10.7
	C70.8,139.2,73.7,132.1,71.7,124.7z"/>
<path class="st0" d="M63.2,169.9c-0.2,7.4,5,11.9,13.7,11.9c9.4,0,15.7-5.3,23.2-5.3c7.6,0,13.9,5.3,23.2,5.3
	c8.5,0,13.9-4.4,13.9-11.9c-0.2-16.5-21.8-42.6-37.1-42.6C84.8,127.4,63.2,153.5,63.2,169.9z"/>
<path class="st0" d="M79.8,86.9c-6,1.7-9,10.4-6.7,19.8c2.3,9.2,9,15.3,15,13.6c6-1.7,9-10.4,6.7-19.8C92.5,91,85.8,85.3,79.8,86.9z
	"/>
<path class="st0" d="M63.2,169.9c-0.2,7.4,5,11.9,13.7,11.9c9.4,0,15.7-5.3,23.2-5.3c7.6,0,13.9,5.3,23.2,5.3
	c8.5,0,13.9-4.4,13.9-11.9c-0.2-16.5-21.8-42.6-37.1-42.6C84.8,127.4,63.2,153.5,63.2,169.9z"/>
<polygon class="st0" points="100.7,29.7 100.6,30 101.1,29.8 "/>
<path class="st0" d="M88.1,120.3c6-1.7,9-10.4,6.7-19.8c-2.3-9.4-9-15.1-15-13.6c-6,1.7-9,10.4-6.7,19.8
	C75.4,115.9,82.1,122,88.1,120.3z"/>
<path class="st0" d="M112.3,120.3c5.8,1.7,12.7-4.4,15-13.6c2.3-9.2-0.7-18.1-6.7-19.8c-5.8-1.7-12.7,4.4-15,13.6
	C103.3,109.6,106.3,118.6,112.3,120.3z"/>
<path class="st0" d="M65.2,140.7c5.6-1.5,8.5-8.7,6.6-16c-2-7.4-8.2-12.1-13.8-10.7c-5.6,1.5-8.6,8.7-6.6,16
	C53.3,137.4,59.5,142.2,65.2,140.7z"/>
<path class="st0" d="M135.2,140.7c5.6,1.3,11.8-3.3,13.8-10.7c2-7.4-1.1-14.5-6.5-16c-5.6-1.3-11.8,3.3-13.8,10.7
	C126.7,132.1,129.6,139.2,135.2,140.7z"/>
<path class="st0" d="M41.3,39.4c0-2.8-2.2-5-5-5H22.6c-2.8,0-5,2.2-5,5v19l23.7-8.1V39.4z"/>
<path class="st1" d="M0.1,185c0,8.3,6.7,15,15,15h170c8.3,0,15-6.7,15-15V84.5l-99-34L0.1,85.1V185z M128.7,124.7
	c2-7.4,8.2-12,13.8-10.7c5.5,1.5,8.5,8.7,6.5,16c-2,7.4-8.2,12-13.8,10.7C129.6,139.2,126.7,132.1,128.7,124.7z M105.6,100.4
	c2.3-9.2,9.2-15.3,15-13.6c6,1.7,9,10.6,6.7,19.8c-2.3,9.2-9.2,15.3-15,13.6C106.3,118.6,103.3,109.6,105.6,100.4z M137.3,169.9
	c0,7.4-5.3,11.9-13.9,11.9c-9.3,0-15.6-5.3-23.2-5.3c-7.6,0-13.8,5.3-23.2,5.3c-8.7,0-13.9-4.4-13.7-11.9
	c0-16.5,21.6-42.6,36.9-42.6C115.5,127.4,137.1,153.5,137.3,169.9z M79.8,86.9c6-1.5,12.7,4.2,15,13.6c2.3,9.4-0.7,18.1-6.7,19.8
	c-6,1.7-12.7-4.4-15-13.6C70.8,97.3,73.8,88.6,79.8,86.9z M57.9,114c5.6-1.5,11.8,3.3,13.8,10.7c2,7.4-0.9,14.5-6.6,16
	c-5.6,1.5-11.8-3.3-13.8-10.7C49.3,122.7,52.3,115.5,57.9,114z"/>
<path class="st1" d="M200.1,15c0-8.3-6.7-15-15-15h-170c-8.3,0-15,6.7-15,15v49.5l17.5-6v-19c0-2.8,2.2-5,5-5h13.7c2.8,0,5,2.2,5,5
	v10.9L100.6,30l0.1-0.3l0.4,0.1l0.4-0.1l0.1,0.3l98.6,33.9V15z"/>
<rect x="226.9" y="64.5" class="st0" width="356.6" height="137.6"/>
<text transform="matrix(1 0 0 1 226.8951 113.2989)" class="st1 st2 st3">PawsApp</text>
</svg>
